<?xml version="1.0" encoding="utf-8"?>
<!-- Generator: Adobe Illustrator 20.1.0, SVG Export Plug-In . SVG Version: 6.00 Build 0)  -->
<svg version="1.1" id="Layer_1" xmlns="http://www.w3.org/2000/svg" xmlns:xlink="http://www.w3.org/1999/xlink" x="0px" y="0px"
	 viewBox="0 0 139.1 55" style="enable-background:new 0 0 139.1 55;" xml:space="preserve">
<style type="text/css">
	.st0{fill-rule:evenodd;clip-rule:evenodd;fill:#FFFFFF;}
</style>
<g>
	<path class="st0" d="M3.4,50.8c0-9.2,7.5-16.7,16.8-16.7c2.9,0,5.7,0.8,8.1,2.1c0-0.3,0-0.6,0-0.8c0-12.7,10.3-22.9,23-22.9
		c2.7,0,5.3,0.5,7.7,1.3C65.1,6.5,74.2,1.9,84.4,1.9c18,0,32.7,14.4,33,32.3c0.4,0,0.8-0.1,1.3-0.1c8.9,0,16.1,6.9,16.8,15.5
		c0,0.3,0,0.5,0,0.8c0,0.1,0,0.3,0,0.4c0,0,0,0,0,0.1c0,0,0,0.1,0,0.1c0,0.5,0,1-0.1,1.5h0H3.5h0c0-0.5-0.1-1-0.1-1.5
		C3.4,51,3.4,50.9,3.4,50.8C3.4,50.9,3.4,50.9,3.4,50.8z"/>
</g>
</svg>
