<?xml version="1.0" encoding="utf-8"?>
<!-- Generator: Adobe Illustrator 17.1.0, SVG Export Plug-In . SVG Version: 6.00 Build 0)  -->
<!DOCTYPE svg PUBLIC "-//W3C//DTD SVG 1.1//EN" "http://www.w3.org/Graphics/SVG/1.1/DTD/svg11.dtd">
<svg version="1.1" id="Layer_1" xmlns="http://www.w3.org/2000/svg" xmlns:xlink="http://www.w3.org/1999/xlink" x="0px" y="0px"
	 viewBox="0 0 360 130.9" enable-background="new 0 0 360 130.9" xml:space="preserve">
<g>
	<path d="M198,77.4c5.2,0,8.9-1.8,10.5-3.8c0.6-0.8,0.6-1,0.6-2.6V61c0-0.7,0-1-0.8-1h-10.2c-0.5,0-0.8,0-0.9,0.4v1.5
		c0,0.9,0.1,0.9,0.9,0.9h6.5v7c0,1.5,0,2.5-1.3,3.3c-1.2,0.8-3.1,1.2-4.9,1.2c-7.6,0-11.8-6.7-11.8-15.2c0-9.4,5.2-13.8,10.6-13.8
		c4.3,0,6.1,2.7,7.1,4c1,1.5,1.6,2.4,2.8,2.4c1.1,0,2.2-0.8,2.2-2.2c0-2.3-4.1-7.1-12-7.1c-9.5,0-15.8,7.2-15.8,17.5
		C181.5,69.2,186.5,77.4,198,77.4z"/>
	<path d="M222,53.6c-3.3,0-6.5,0.7-8,1.5c-1.1,0.6-1.3,1.1-1.3,2.6v18.4c0,0.7,0.3,0.7,1,0.7h2.6c0.6,0,0.9,0,0.9-0.7V58.8
		c0-1.1,0.1-3.1,3.1-3.1c1.5,0,2.1,0.5,2.8,1.1c0.9,0.8,1.2,1.2,2.1,1.2c1.3,0,2.1-0.9,2.1-1.9C227.1,54.1,224.4,53.6,222,53.6z"/>
	<path d="M245,72.3V60.6c-0.1-2.3-0.1-7-7.5-7c-5.4,0-9.2,2.6-9.2,5.2c0,1.4,1.3,1.8,2,1.8c1.5,0,1.9-1.1,2.3-1.9
		c0.4-0.9,1.3-2.9,4.2-2.9c3.8,0,3.8,3,3.8,4.7v2.2c-8,2.1-13.7,3.5-13.7,8.6c0,6,7.5,6,8.8,6c2.2,0,5.2-0.3,7.1-1.2
		C244.7,75.3,244.9,74.2,245,72.3z M240.6,71.8c0,1.2,0,3.2-4,3.2c-5.1,0-5.1-3.8-5.1-4.2c0-3.4,3.6-4.4,9.1-5.9V71.8z"/>
	<path d="M249.9,87.2h2.5c0.7,0,0.9-0.3,0.9-0.8V75.8c1,0.6,2.5,1.5,5.4,1.5c8.2,0,11.7-7.4,11.7-12.9c0-4.7-2.4-10.8-11.7-10.8
		c-4.3,0-8.3,1.4-9.3,2.8c-0.5,0.8-0.5,1.4-0.6,3.4v26.5C248.8,87.1,249.2,87.2,249.9,87.2z M253.3,60c0-1.6,0-4,4.4-4
		c5.2,0,8.2,3.9,8.2,9.2c0,6.1-3.4,9.5-7.5,9.5c-1.8,0-3.5-0.7-5-1.5V60z"/>
	<path d="M293.6,75.8V61.3c-0.1-1.8-0.2-7.6-8-7.6c-4.5,0-6.8,2-7.7,2.8V44.1c0-0.7-0.2-0.8-1-0.8h-2.7c-0.7,0-0.9,0.3-0.9,0.8V76
		c0,0.6,0.2,0.9,0.9,0.9h2.7c0.8,0,1-0.3,1-1v-17c1.7-1.4,3.8-2.5,6.1-2.5c2,0,3.7,0.9,4.5,2.2c0.7,1.1,0.7,2.2,0.7,3.2V76
		c0,0.8,0.2,0.8,1.1,0.9h2.5C293.6,76.9,293.6,76.6,293.6,75.8z"/>
	<g>
		<path d="M300.1,50.2c1.7,0,2.7-1.2,2.7-2.4c-0.1-1.3-1.3-2.2-2.7-2.2c-1.6,0-2.8,1-2.8,2.3C297.4,49.2,298.4,50.2,300.1,50.2z"/>
		<path d="M298.7,54.2c-0.9,0-0.9,0.3-0.9,0.8v21.1c0,0.6,0,0.8,0.8,0.8h2.7c0.8,0,1,0,1-0.8V55c0-0.7-0.2-0.8-1-0.8H298.7z"/>
	</g>
	<path d="M316.7,77.4c6.9,0,9.5-5.3,9.5-7.2c0-1-0.8-1-1.1-1c-0.6,0-0.8,0.3-1.4,1.2c-0.8,1.1-2.5,3.5-6,3.5c-3.8,0-7.6-3.1-7.6-9.6
		c0-5.2,3.1-8.2,6.6-8.2c3,0,4,1.8,5,3.6c0.4,0.7,1.1,1.3,2.1,1.3c0.8,0,2.1-0.4,2.1-1.8c0-1.7-2.8-5.6-8.6-5.6
		c-7.2,0-11.2,5.1-11.2,12.1C306.1,72.4,310,77.4,316.7,77.4z"/>
	<g>
		<path d="M99.4,46.3h8.3v29.6c0.1,0.9,0.3,0.9,1.1,0.9h2.8c0.8,0,0.8-0.2,0.9-0.9V46.3h8.4c0.7,0,0.8-0.2,0.8-0.9
			c0-2,0-2.2-0.8-2.2H99.4c-0.9,0-0.9,0.2-0.9,2.1C98.6,46.1,98.7,46.3,99.4,46.3z"/>
		<path d="M127.9,75.8V58.5c1.8-1.4,4-2.5,6.5-2.5c2.1,0,3.9,0.9,4.8,2.3c0.7,1.1,0.7,2.3,0.7,3.2V76c0,0.8,0.2,0.8,1.1,0.9h2.7
			c1,0,1-0.3,1-1.1V61c-0.1-1.8-0.2-7.8-8.6-7.8c-4.9,0-7.4,2.1-8.3,2.8V43.5c0-0.7-0.2-0.8-1-0.8H124c-0.8,0-1,0.3-1,0.8v32.5
			c0,0.7,0.2,0.9,1,0.9h2.9C127.7,76.9,127.9,76.6,127.9,75.8z"/>
		<path d="M168.6,68.5c-0.7,0-0.8,0.2-1.6,1.3c-1.8,2.4-4.2,3.9-7.5,3.9c-4.1,0-8-2.9-8.4-9.2l16.6-2c0.7-0.1,1.6-0.2,1.6-1.4
			c0-1.8-1.8-8-10.4-8c-6.6,0-9.4,4-10,5c-1.1,1.7-1.8,4-1.8,7.2c0,2.1,0.3,4.6,1.7,6.9c2.4,4.1,6.8,5.2,10.1,5.2
			c8.5,0,10.8-6.7,10.8-7.8C169.7,68.7,169,68.5,168.6,68.5z M158.4,55.7c3.1,0,5.5,2.2,5.8,5l-12.9,1.7
			C151.8,58.5,154,55.7,158.4,55.7z"/>
	</g>
	<path d="M110.1,87.1c-2.9,0-6.4,0.4-7.6,0.8c-0.5,0.2-0.7,0.3-0.7,1.3v30.6c0,0.5,0.1,0.9,0.8,1.1c1.3,0.3,4.7,0.5,6.4,0.5
		c5.3,0,10.7-1.1,14.6-4.6c1.9-1.7,5.1-5.6,5.1-12.5C128.7,96.5,124.1,87.1,110.1,87.1z M109,118.3c-1.1,0-1.8,0-2.5-0.2v-28
		c0.9-0.1,1.6-0.2,3-0.2c4.4,0,8.1,1.1,10.8,4.1c2.4,2.7,3.3,6.4,3.3,10C123.7,112.6,119.1,118.3,109,118.3z"/>
	<path d="M150.6,112.8c-0.6,0-0.8,0.2-1.5,1.2c-1.7,2.3-4,3.8-7.1,3.8c-3.9,0-7.5-2.8-8-8.8l15.7-1.9c0.6-0.1,1.5-0.2,1.5-1.4
		c0-1.8-1.8-7.6-9.8-7.6c-6.3,0-8.9,3.9-9.5,4.8c-1,1.6-1.7,3.8-1.7,6.9c0,2,0.3,4.4,1.6,6.6c2.3,4,6.5,5,9.5,5
		c8,0,10.2-6.4,10.2-7.5C151.6,112.9,150.9,112.8,150.6,112.8z M140.9,100.5c2.9,0,5.2,2.1,5.5,4.8l-12.3,1.6
		C134.6,103.2,136.7,100.5,140.9,100.5z"/>
	<path d="M164.5,108.3l-2.2-0.9c-1.8-0.7-4.3-1.6-4.3-4c0-1.2,1.1-3.1,3.9-3.1c2.5,0,3.4,1.5,3.9,2.3c0.5,0.7,0.9,1.4,2.2,1.4
		c1,0,1.9-0.6,1.9-1.6c0-1.4-2.2-4.3-8-4.3c-5.6,0-8.1,2.9-8.1,6c0,3.9,3.5,5.4,7.7,7c2.3,0.9,4.9,1.9,4.9,4.5c0,1.6-1.2,3.3-4,3.3
		c-2.6,0-3.7-1.2-4.4-2.1c-0.3-0.5-0.5-0.8-0.7-1c-0.3-0.4-0.9-1.1-2-1.1c-1,0-2.1,0.6-2.1,1.9c0,1.2,2,4.8,8.9,4.8
		c1.3,0,4.1-0.1,6.2-1.7c1.5-1.2,2.4-3,2.4-4.8C170.8,110.8,167.2,109.4,164.5,108.3z"/>
	<path d="M358.3,112.8c-0.6,0-0.8,0.2-1.5,1.2c-1.7,2.3-4,3.8-7.1,3.8c-3.9,0-7.5-2.8-8-8.8l15.7-1.9c0.6-0.1,1.5-0.2,1.5-1.4
		c0-1.8-1.8-7.6-9.8-7.6c-6.3,0-8.9,3.9-9.5,4.8c-1,1.6-1.7,3.8-1.7,6.9c0,2,0.3,4.4,1.6,6.6c2.3,4,6.5,5,9.5,5
		c8,0,10.2-6.4,10.2-7.5C359.3,113,358.6,112.8,358.3,112.8z M348.5,100.6c2.9,0,5.2,2.1,5.5,4.8l-12.3,1.6
		C342.3,103.2,344.4,100.6,348.5,100.6z"/>
	<path d="M329.2,108.3l-2.2-0.9c-1.8-0.7-4.3-1.6-4.3-4c0-1.2,1.1-3.1,3.9-3.1c2.5,0,3.4,1.5,3.9,2.3c0.5,0.7,0.9,1.4,2.2,1.4
		c1,0,1.9-0.6,1.9-1.6c0-1.4-2.2-4.3-8-4.3c-5.6,0-8.1,2.9-8.1,6c0,3.9,3.5,5.4,7.7,7c2.3,0.9,4.9,1.9,4.9,4.5c0,1.6-1.2,3.2-4,3.2
		c-2.6,0-3.7-1.2-4.4-2.1c-0.3-0.5-0.5-0.8-0.7-1c-0.3-0.4-0.9-1.1-2-1.1c-1,0-2.1,0.6-2.1,1.9c0,1.2,2,4.8,8.9,4.8
		c1.3,0,4.1-0.1,6.2-1.7c1.5-1.2,2.4-3,2.4-4.8C335.4,110.9,331.8,109.4,329.2,108.3z"/>
	<path d="M176.5,90.1c-1.7,0-2.8,1-2.8,2.3c0,1.2,1,2.2,2.8,2.2c1.8,0,2.8-1.2,2.8-2.4C179.1,90.9,177.9,90.1,176.5,90.1z"/>
	<path d="M177.7,98.5H175c-0.9,0-0.9,0.3-0.9,0.8V120c0,0.6,0,0.8,0.8,0.8h2.8c0.8,0,1,0,1-0.8V99.3
		C178.7,98.6,178.5,98.5,177.7,98.5z"/>
	<path d="M197.6,117.4l-5.5-0.3c-3-0.1-5.2-0.2-5.2-1.6c0-0.9,0.8-1.8,2.1-2.7c1,0.2,1.8,0.3,3.1,0.3c4.1,0,9.2-2.1,9.2-7.3
		c0-2.6-1-3.7-1.7-4.6l4.3-0.9c0.4-0.1,0.6-0.1,0.6-0.4c0-0.1-0.1-1.3-0.7-1.3c-0.3,0-4.3,0.6-5.1,0.6c-1.2,0-1.9-0.2-3.1-0.6
		c-1.1-0.3-2.2-0.6-4-0.6c-5.4,0-9.2,3-9.2,7.3c0,1.2,0.3,2.5,1,3.7c1.1,1.9,2.5,2.6,3.5,3c-1.4,1-4.6,3.2-4.6,5.1
		c0,2.1,2.6,2.6,3.9,2.9c-3,1.6-5.4,3.6-5.4,5.9c0,2.1,1.9,3.8,5.1,4.5c1.1,0.2,2.6,0.5,4.7,0.5c11.3,0,15-5.4,15-8.3
		C205.8,117.9,199.9,117.5,197.6,117.4z M186.6,104.9c0-3.6,2.8-4.8,5.1-4.8c1.2,0,2.2,0.3,2.9,0.8c0.3,0.3,1.7,1.2,2.2,3.6
		c0.1,0.5,0.2,1,0.2,1.6c0,3.5-2.5,4.6-4.8,4.6C189.5,110.7,186.6,108.7,186.6,104.9z M192.8,128.3c-3.6,0-7.4-1-7.4-3.7
		c0-1.8,1.5-2.9,3.2-4.1c1.3,0.1,6.8,0.3,7.9,0.3c1.7,0.1,5.1,0.4,5.1,2.9C201.6,126.4,196.7,128.3,192.8,128.3z"/>
	<path d="M217.6,98.1c-0.6,0-5.4,0-8.8,1.5c-1.8,0.7-2.1,1.5-2.1,3.1V120c0,0.7,0.3,0.9,1,0.8h2.5c0.7,0,1.1-0.1,1.1-0.9v-15.8
		c0-1.1,0-3.8,5.5-3.8c6,0,6,3.2,6,5.2v14.4c0,0.8,0.3,0.9,1.1,0.9h2.8c0.6-0.1,0.6-0.5,0.6-0.9v-14.8
		C227.4,102.6,227.3,98.1,217.6,98.1z"/>
	<path d="M303.6,121.4c0.6,0,5.4,0,8.9-1.5c1.8-0.7,2.1-1.5,2.1-3.2V99.3c0-0.7-0.3-0.9-1-0.8h-2.5c-0.7,0-1.1,0.1-1.1,0.9v15.9
		c0,1.1,0,3.8-5.6,3.8c-6,0-6-3.2-6-5.3V99.3c0-0.8-0.3-0.9-1.1-0.9h-2.8c-0.6,0.1-0.6,0.5-0.6,0.9v14.9
		C293.7,116.8,293.8,121.4,303.6,121.4z"/>
	<path d="M261.8,87.2h-2.9c-0.9,0-0.9,0.2-0.9,1v13.6H244V88c0-0.8-0.2-0.9-0.9-0.8h-2.9c-0.7,0-0.9,0.2-0.9,0.8v31.9
		c0,0.8,0.2,0.9,0.9,0.9h2.9c0.7,0,0.9-0.1,0.9-0.9v-15.2h14.1v15.2c0,0.8,0.1,0.9,0.9,0.9h2.9c0.6,0,0.9,0,0.9-0.8V88
		C262.8,87.2,262.6,87.2,261.8,87.2z"/>
	<path d="M278,98.1c-8,0-12.6,5.7-12.6,11.7c0,5.7,4.3,11.6,12.6,11.6c8.1,0,12.6-6,12.5-11.8C290.3,104.6,286.6,98.1,278,98.1z
		 M278.2,118.7c-4,0-7.7-3.6-7.7-9.6c0-5.1,2.8-8.7,7.1-8.7c3.7,0,7.3,2.9,7.6,8.8C285.6,115.2,282.4,118.7,278.2,118.7z"/>
	<g>
		<g>
			<path d="M51.1,102.7V76.8l18.6,2.6v24L51.1,102.7z M16.9,101.5V72L41,75.4v27L16.9,101.5z M51.1,69.7V46.6l18.6,4.9v21.4
				L51.1,69.7z M16.9,63.9V37.7L41,44v24L16.9,63.9z M1.2,120.8h81.9V43.3L1.2,19.3V120.8z"/>
			<polygon fill="#E5005B" points="16.9,0 1.2,19.3 83.1,43.3 			"/>
		</g>
	</g>
</g>
</svg>
