<?xml version="1.0" encoding="utf-8"?>
<!-- Generator: Adobe Illustrator 17.1.0, SVG Export Plug-In . SVG Version: 6.00 Build 0)  -->
<!DOCTYPE svg PUBLIC "-//W3C//DTD SVG 1.1//EN" "http://www.w3.org/Graphics/SVG/1.1/DTD/svg11.dtd">
<svg version="1.1" id="Layer_1" xmlns="http://www.w3.org/2000/svg" xmlns:xlink="http://www.w3.org/1999/xlink" x="0px" y="0px"
	 viewBox="0 0 222 82" enable-background="new 0 0 222 82" xml:space="preserve">
<g>
	<path fill="#FFFFFF" d="M122,48.4c3.2,0,5.5-1.1,6.5-2.4c0.4-0.5,0.4-0.6,0.4-1.6v-6.2c0-0.4,0-0.6-0.5-0.6H122
		c-0.3,0-0.5,0-0.6,0.3v0.9c0,0.5,0.1,0.6,0.6,0.6h4v4.3c0,0.9,0,1.6-0.8,2.1c-0.7,0.5-1.9,0.7-3,0.7c-4.7,0-7.3-4.1-7.3-9.4
		c0-5.8,3.2-8.5,6.5-8.5c2.7,0,3.8,1.6,4.4,2.5c0.6,0.9,1,1.5,1.7,1.5c0.7,0,1.4-0.5,1.4-1.4c0-1.4-2.5-4.4-7.4-4.4
		c-5.9,0-9.8,4.5-9.8,10.8C111.8,43.3,114.8,48.4,122,48.4z"/>
	<path fill="#FFFFFF" d="M136.8,33.7c-2,0-4,0.5-4.9,0.9c-0.7,0.4-0.8,0.7-0.8,1.6v11.4c0,0.4,0.2,0.5,0.6,0.5h1.6
		c0.4,0,0.5,0,0.6-0.5V36.9c0-0.7,0.1-1.9,1.9-1.9c0.9,0,1.3,0.3,1.7,0.7c0.5,0.5,0.8,0.7,1.3,0.7c0.8,0,1.3-0.5,1.3-1.2
		C140,34,138.3,33.7,136.8,33.7z"/>
	<path fill="#FFFFFF" d="M151,45.2V38c0-1.4-0.1-4.3-4.6-4.3c-3.3,0-5.7,1.6-5.7,3.2c0,0.9,0.8,1.1,1.2,1.1c0.9,0,1.2-0.7,1.4-1.2
		c0.2-0.5,0.8-1.8,2.6-1.8c2.3,0,2.3,1.8,2.3,2.9v1.4c-5,1.3-8.5,2.2-8.5,5.3c0,3.7,4.6,3.7,5.5,3.7c1.3,0,3.2-0.2,4.4-0.7
		C150.9,47.1,151,46.4,151,45.2z M148.3,44.9c0,0.7,0,2-2.5,2c-3.2,0-3.2-2.4-3.2-2.6c0-2.1,2.2-2.7,5.6-3.7V44.9z"/>
	<path fill="#FFFFFF" d="M154.1,54.5h1.6c0.4,0,0.5-0.2,0.5-0.5v-6.5c0.6,0.3,1.6,1,3.4,1c5.1,0,7.3-4.6,7.3-8
		c0-2.9-1.5-6.7-7.3-6.7c-2.7,0-5.1,0.9-5.8,1.7c-0.3,0.5-0.3,0.9-0.4,2.1v16.4C153.4,54.4,153.6,54.5,154.1,54.5z M156.2,37.6
		c0-1,0-2.4,2.7-2.4c3.2,0,5,2.4,5,5.7c0,3.8-2.1,5.9-4.6,5.9c-1.1,0-2.2-0.4-3.1-0.9V37.6z"/>
	<path fill="#FFFFFF" d="M181.1,47.4v-9c0-1.1-0.1-4.7-5-4.7c-2.8,0-4.2,1.2-4.8,1.7v-7.6c0-0.4-0.1-0.5-0.6-0.5h-1.7
		c-0.4,0-0.6,0.2-0.6,0.5v19.7c0,0.4,0.1,0.6,0.6,0.6h1.7c0.5,0,0.6-0.2,0.6-0.6V36.9c1.1-0.8,2.3-1.5,3.8-1.5
		c1.2,0,2.3,0.5,2.8,1.4c0.4,0.7,0.4,1.4,0.4,2v8.8c0,0.5,0.1,0.5,0.7,0.5h1.6C181.1,48.1,181.1,47.9,181.1,47.4z"/>
	<g>
		<path fill="#FFFFFF" d="M185.2,31.6c1.1,0,1.7-0.7,1.7-1.5c-0.1-0.8-0.8-1.4-1.6-1.4c-1,0-1.7,0.6-1.7,1.4
			C183.5,30.9,184.1,31.6,185.2,31.6z"/>
		<path fill="#FFFFFF" d="M184.3,34c-0.5,0-0.5,0.2-0.5,0.5v13.1c0,0.4,0,0.5,0.5,0.5h1.7c0.5,0,0.6,0,0.6-0.5V34.5
			c0-0.4-0.1-0.5-0.6-0.5H184.3z"/>
	</g>
	<path fill="#FFFFFF" d="M195.4,48.4c4.3,0,5.9-3.3,5.9-4.5c0-0.6-0.5-0.6-0.7-0.6c-0.4,0-0.5,0.2-0.9,0.8c-0.5,0.7-1.5,2.2-3.7,2.2
		c-2.3,0-4.7-1.9-4.7-5.9c0-3.2,1.9-5.1,4.1-5.1c1.8,0,2.5,1.1,3.1,2.2c0.2,0.4,0.7,0.8,1.3,0.8c0.5,0,1.3-0.3,1.3-1.1
		c0-1.1-1.8-3.4-5.3-3.4c-4.5,0-7,3.1-7,7.5C188.9,45.3,191.3,48.4,195.4,48.4z"/>
	<g>
		<path fill="#FFFFFF" d="M61,29.2h5.1v18.3c0,0.6,0.2,0.6,0.7,0.6h1.7c0.5,0,0.5-0.1,0.5-0.6V29.2h5.2c0.4,0,0.5-0.1,0.5-0.5
			c0-1.2,0-1.4-0.5-1.4H61c-0.5,0-0.5,0.2-0.5,1.3C60.4,29,60.5,29.2,61,29.2z"/>
		<path fill="#FFFFFF" d="M78.6,47.4V36.7c1.1-0.9,2.5-1.6,4.1-1.6c1.3,0,2.4,0.6,3,1.4c0.4,0.7,0.4,1.4,0.4,2v9
			c0,0.5,0.1,0.5,0.7,0.5h1.7c0.6,0,0.6-0.2,0.6-0.7v-9.2c0-1.1-0.1-4.8-5.3-4.8c-3,0-4.6,1.3-5.2,1.7v-7.8c0-0.4-0.1-0.5-0.6-0.5
			h-1.8c-0.5,0-0.6,0.2-0.6,0.5v20.1c0,0.4,0.1,0.6,0.6,0.6h1.8C78.5,48.1,78.6,47.9,78.6,47.4z"/>
		<path fill="#FFFFFF" d="M103.8,42.9c-0.4,0-0.5,0.1-1,0.8c-1.1,1.5-2.6,2.4-4.6,2.4c-2.5,0-4.9-1.8-5.2-5.7l10.2-1.2
			c0.4-0.1,1-0.1,1-0.9c0-1.1-1.1-4.9-6.4-4.9c-4.1,0-5.8,2.5-6.2,3.1c-0.7,1-1.1,2.5-1.1,4.5c0,1.3,0.2,2.9,1.1,4.3
			c1.5,2.5,4.2,3.2,6.2,3.2c5.2,0,6.7-4.1,6.7-4.8C104.5,43,104,42.9,103.8,42.9z M97.4,35c1.9,0,3.4,1.3,3.6,3.1l-8,1
			C93.4,36.7,94.7,35,97.4,35z"/>
	</g>
	<path fill="#FFFFFF" d="M67.6,54.4c-1.8,0-3.9,0.2-4.7,0.5c-0.3,0.1-0.4,0.2-0.4,0.8v18.9c0,0.3,0.1,0.5,0.5,0.7
		c0.8,0.2,2.9,0.3,4,0.3c3.3,0,6.6-0.7,9-2.9c1.1-1,3.2-3.4,3.2-7.7C79.1,60.2,76.2,54.4,67.6,54.4z M66.9,73.7
		c-0.7,0-1.1,0-1.5-0.1V56.3c0.5-0.1,1-0.1,1.9-0.1c2.7,0,5,0.7,6.7,2.6c1.5,1.7,2.1,3.9,2.1,6.2C76,70.2,73.2,73.7,66.9,73.7z"/>
	<path fill="#FFFFFF" d="M92.7,70.3c-0.4,0-0.5,0.1-0.9,0.8c-1,1.4-2.5,2.3-4.4,2.3c-2.4,0-4.7-1.7-4.9-5.4l9.7-1.2
		c0.4-0.1,0.9-0.1,0.9-0.8c0-1.1-1.1-4.7-6.1-4.7c-3.9,0-5.5,2.4-5.9,2.9c-0.6,1-1.1,2.4-1.1,4.3c0,1.2,0.2,2.8,1,4.1
		c1.4,2.4,4,3.1,5.9,3.1c4.9,0,6.3-4,6.3-4.6C93.3,70.4,92.9,70.3,92.7,70.3z M86.6,62.7c1.8,0,3.2,1.3,3.4,3l-7.6,1
		C82.8,64.3,84.1,62.7,86.6,62.7z"/>
	<path fill="#FFFFFF" d="M101.3,67.5L99.9,67c-1.1-0.4-2.7-1-2.7-2.5c0-0.8,0.7-1.9,2.4-1.9c1.5,0,2.1,0.9,2.4,1.4
		c0.3,0.5,0.6,0.9,1.4,0.9c0.6,0,1.2-0.4,1.2-1c0-0.8-1.3-2.7-4.9-2.7c-3.5,0-5,1.8-5,3.7c0,2.4,2.2,3.3,4.8,4.4
		c1.4,0.6,3,1.2,3,2.8c0,1-0.8,2-2.4,2c-1.6,0-2.3-0.7-2.7-1.3c-0.2-0.3-0.3-0.5-0.4-0.6c-0.2-0.2-0.6-0.7-1.3-0.7
		c-0.6,0-1.3,0.4-1.3,1.1c0,0.8,1.2,3,5.5,3c0.8,0,2.5,0,3.8-1c1-0.7,1.5-1.8,1.5-2.9C105.1,69.1,102.9,68.2,101.3,67.5z"/>
	<path fill="#FFFFFF" d="M221.2,70.3c-0.4,0-0.5,0.1-0.9,0.8c-1,1.4-2.5,2.3-4.4,2.3c-2.4,0-4.7-1.7-4.9-5.4l9.7-1.2
		c0.4-0.1,0.9-0.1,0.9-0.8c0-1.1-1.1-4.7-6.1-4.7c-3.9,0-5.5,2.4-5.9,2.9c-0.6,1-1.1,2.4-1.1,4.3c0,1.2,0.2,2.8,1,4.1
		c1.4,2.4,4,3.1,5.9,3.1c4.9,0,6.3-4,6.3-4.6C221.8,70.4,221.4,70.3,221.2,70.3z M215.1,62.7c1.8,0,3.2,1.3,3.4,3l-7.6,1
		C211.3,64.4,212.6,62.7,215.1,62.7z"/>
	<path fill="#FFFFFF" d="M203.1,67.5l-1.4-0.5c-1.1-0.4-2.7-1-2.7-2.5c0-0.8,0.7-1.9,2.4-1.9c1.5,0,2.1,0.9,2.4,1.4
		c0.3,0.5,0.6,0.9,1.4,0.9c0.6,0,1.2-0.4,1.2-1c0-0.8-1.3-2.7-4.9-2.7c-3.5,0-5,1.8-5,3.7c0,2.4,2.2,3.3,4.8,4.4
		c1.4,0.6,3,1.2,3,2.8c0,1-0.8,2-2.4,2c-1.6,0-2.3-0.7-2.7-1.3c-0.2-0.3-0.3-0.5-0.4-0.6c-0.2-0.2-0.6-0.7-1.3-0.7
		c-0.6,0-1.3,0.4-1.3,1.1c0,0.8,1.2,3,5.5,3c0.8,0,2.5,0,3.8-1c1-0.7,1.5-1.8,1.5-2.9C207,69.1,204.8,68.2,203.1,67.5z"/>
	<path fill="#FFFFFF" d="M108.6,56.2c-1,0-1.8,0.6-1.8,1.4c0,0.7,0.6,1.4,1.7,1.4c1.1,0,1.7-0.7,1.7-1.5
		C110.3,56.8,109.5,56.2,108.6,56.2z"/>
	<path fill="#FFFFFF" d="M109.4,61.4h-1.7c-0.5,0-0.5,0.2-0.5,0.5v12.8c0,0.4,0,0.5,0.5,0.5h1.7c0.5,0,0.6,0,0.6-0.5V61.9
		C110,61.5,109.9,61.4,109.4,61.4z"/>
	<path fill="#FFFFFF" d="M121.7,73.1l-3.4-0.2c-1.8-0.1-3.2-0.2-3.2-1c0-0.5,0.5-1.1,1.3-1.7c0.6,0.1,1.1,0.2,1.9,0.2
		c2.5,0,5.7-1.3,5.7-4.5c0-1.6-0.6-2.3-1.1-2.8l2.7-0.5c0.3,0,0.4-0.1,0.4-0.3c0-0.1-0.1-0.8-0.4-0.8c-0.2,0-2.7,0.4-3.1,0.4
		c-0.8,0-1.2-0.1-1.9-0.4c-0.7-0.2-1.3-0.4-2.5-0.4c-3.4,0-5.7,1.9-5.7,4.5c0,0.7,0.2,1.5,0.6,2.3c0.7,1.2,1.6,1.6,2.2,1.9
		c-0.9,0.6-2.8,2-2.8,3.1c0,1.3,1.6,1.6,2.4,1.8c-1.8,1-3.3,2.2-3.3,3.6c0,1.3,1.2,2.3,3.2,2.8c0.7,0.2,1.6,0.3,2.9,0.3
		c7,0,9.3-3.3,9.3-5.2C126.8,73.5,123.1,73.2,121.7,73.1z M114.9,65.4c0-2.2,1.7-2.9,3.1-2.9c0.7,0,1.3,0.2,1.8,0.5
		c0.2,0.2,1,0.7,1.4,2.3c0.1,0.3,0.1,0.6,0.1,1c0,2.1-1.6,2.9-3,2.9C116.7,69,114.9,67.8,114.9,65.4z M118.7,79.9
		c-2.3,0-4.6-0.6-4.6-2.3c0-1.1,0.9-1.8,2-2.5c0.8,0.1,4.2,0.2,4.9,0.2c1,0.1,3.1,0.2,3.1,1.8C124.2,78.7,121.2,79.9,118.7,79.9z"/>
	<path fill="#FFFFFF" d="M134.1,61.2c-0.3,0-3.3,0-5.4,0.9c-1.1,0.4-1.3,0.9-1.3,1.9v10.7c0,0.5,0.2,0.5,0.6,0.5h1.6
		c0.4,0,0.7-0.1,0.7-0.5v-9.8c0-0.7,0-2.4,3.4-2.4c3.7,0,3.7,2,3.7,3.2v8.9c0,0.5,0.2,0.5,0.7,0.5h1.7c0.3-0.1,0.4-0.3,0.4-0.5v-9.2
		C140.2,64,140.1,61.2,134.1,61.2z"/>
	<path fill="#FFFFFF" d="M187.3,75.6c0.3,0,3.4,0,5.5-0.9c1.1-0.5,1.3-0.9,1.3-2V62c0-0.5-0.2-0.5-0.6-0.5h-1.6
		c-0.4,0-0.7,0.1-0.7,0.5v9.8c0,0.7,0,2.4-3.5,2.4c-3.7,0-3.7-2-3.7-3.3v-9c0-0.5-0.2-0.5-0.7-0.5h-1.8c-0.3,0.1-0.4,0.3-0.4,0.5
		v9.2C181.2,72.8,181.3,75.6,187.3,75.6z"/>
	<path fill="#FFFFFF" d="M161.5,54.4h-1.8c-0.5,0-0.5,0.1-0.5,0.6v8.4h-8.7v-8.5c0-0.5-0.1-0.5-0.6-0.5h-1.8c-0.4,0-0.5,0.1-0.5,0.5
		v19.7c0,0.5,0.1,0.6,0.5,0.6h1.8c0.4,0,0.6,0,0.6-0.6v-9.4h8.7v9.4c0,0.5,0.1,0.6,0.5,0.6h1.8c0.4,0,0.6,0,0.6-0.5V54.9
		C162,54.4,161.9,54.4,161.5,54.4z"/>
	<path fill="#FFFFFF" d="M171.5,61.2c-4.9,0-7.8,3.5-7.8,7.2c0,3.6,2.7,7.2,7.8,7.2c5,0,7.8-3.7,7.7-7.3
		C179.1,65.2,176.8,61.2,171.5,61.2z M171.6,74c-2.5,0-4.8-2.2-4.8-5.9c0-3.2,1.7-5.4,4.4-5.4c2.3,0,4.5,1.8,4.7,5.4
		C176.2,71.8,174.2,74,171.6,74z"/>
	<g>
		<g>
			<path fill="#FFFFFF" d="M31,64.1V48l11.5,1.6v14.8L31,64.1z M9.9,63.3V45l14.9,2.1v16.7L9.9,63.3z M31,43.6V29.3l11.5,3v13.3
				L31,43.6z M9.9,40V23.8l14.9,3.9v14.9L9.9,40z M0.2,75.2h50.7v-48L0.2,12.5V75.2z"/>
			<polygon fill="#E5005B" points="9.9,0.5 0.2,12.5 50.9,27.3 			"/>
		</g>
	</g>
</g>
</svg>
